<svg xmlns="http://www.w3.org/2000/svg" viewBox="0 0 585.58 461.68"><defs><style>.cls-1{fill:#505556;}.cls-2{fill:#54595a;}.cls-3{fill:#525758;}.cls-4{fill:#565b5b;}.cls-5{fill:#535859;}.cls-6{fill:#515657;}.cls-7{fill:#565b5c;}.cls-8{fill:#0952a4;}.cls-9{fill:#0b53a5;}.cls-10{fill:#0750a3;}</style></defs><g id="Capa_2" data-name="Capa 2"><g id="PORTAFOLIO"><g id="LOGO_METALSA"><g id="LETRAS"><path class="cls-1" d="M81.78,418.53q-7.29,20-14.6,39.9l-2.92-.06Q41.75,406.8,19.21,355.22l-1.75.4c0,30.42-.28,60.84.37,91.25.07,3.59,5.23,7.08,8.51,11.22H0c10-6.08,10.93-14.85,10.73-25-.49-24.76.21-49.54-.25-74.3-.11-5.83-2.91-11.61-4.88-19,10.34,0,22.59-.33,34.78.33,2,.11,4.38,4.28,5.59,7,9,20.23,17.62,40.62,26.66,60.82,1.25,2.79,4.12,4.86,6.24,7.26Z"/><path class="cls-2" d="M371.46,449.12l12.41-2.84c-4.54,4.81-6.88,8.36-10.13,10.55-9.86,6.65-20.19,3.29-27.36-8.24-6.14,3.28-12,7.13-18.45,9.7-8.64,3.46-17.24,2.62-22.46-6s-3.43-17.95,4.36-23.81c9.63-7.23,20.59-12.71,31-18.82,5.41-3.16,8.82-15.85,3.84-22.22-2.76-3.54-9.75-5.12-14.85-5.14-6.09,0-8.49,4.07-4,9.7,4,5,5.28,11.42-.63,14.2-4.72,2.21-12.24,1.88-17.08-.39-6.52-3-5.13-9.82-1.92-15.45,10.06-17.65,46.61-21.29,59.62-5.64,2.59,3.12,4,7.86,4.43,12,.94,8.41,1,16.93,1.17,25.41S371.46,439,371.46,449.12Zm-24.27-34.65L344,412.64c-5.3,6.56-11.62,12.57-15.55,19.87-2.87,5.34.12,12.16,7,11.93,4-.13,10.21-4.7,11.23-8.41C348.51,429.29,347.19,421.7,347.19,414.47Z"/><path class="cls-3" d="M574.94,449.34l10.25-2.3c.13.67.52,1.67.33,1.79-5.55,3.72-11,10-16.79,10.29-6.3.32-12.88-4.92-19.34-7.73l1.33-2.95c-5.77,3.19-11.32,6.87-17.35,9.45-9,3.82-17.52,3.2-23.66-5.47-5.06-7.14-3.43-18.22,5.22-24.66,9.37-7,20-12.41,30.27-18s6.21-14.46,3.87-21.17c-1.24-3.57-8.89-6.7-13.71-6.79-6.3-.11-9.38,3.69-5.84,11.29,1.76,3.77,1.13,12.1-1.33,13.6-3.71,2.27-10.52,1.73-15-.09-5.55-2.27-7.93-7.86-3.85-13.71,2.84-4.06,5.72-8.69,9.75-11.21,11.41-7.15,24.46-8.61,37.26-5.51,10.63,2.57,18.51,9.34,18.58,21.73C575,414.42,574.94,431,574.94,449.34ZM551.52,415l-2.41-2.22c-5.46,6.12-11.53,11.83-16,18.6-1.55,2.31-.36,8.5,1.82,10.66s7.74,2.8,10.71,1.53c2.74-1.16,5.2-5.61,5.64-8.9C552.13,428.21,551.52,421.56,551.52,415Z"/><path class="cls-3" d="M105.45,350.93c.83-9.15,5.77-12.26,14.82-11.38,8.13.79,16.39.17,23,.17-.64,14.37-1.47,26.18-1.64,38-.26,18.06-.07,36.14-.07,54.21,0,19.55,0,19.55,18.22,26.32H96.94c15.45-5.47,15.43-5.47,15.43-23q0-40.93,0-81.87Z"/><path class="cls-2" d="M232.6,437.42c-7,17.44-19.39,25.61-34.59,24.08s-25.73-11.29-30.22-28.2c-3.56-13.4-2.42-26.34,4-38.73,8-15.47,21.18-22.25,38.32-19.72,11.06,1.63,21.59,14,24.21,28.81.58,3.24.53,6.59.86,11.06H190.26c.21,13.19,3.72,23.9,14.06,30.38C215.51,452.11,224.17,444.62,232.6,437.42Zm-17.85-29.24c-1.51-8-1.83-15.44-4.42-22-3.33-8.43-11.7-8.76-15.66-.6-3.21,6.59-4.22,14.26-6.53,22.59Z"/><path class="cls-4" d="M420.93,342.16c.18,31.78.49,63.56.46,95.34,0,8.6-.17,16.79,9.77,21.13H390.69c2.15-6.67,5.9-13.17,6.07-19.75.7-27,.64-54,0-81-.13-5.89-3.68-11.71-5.74-17.79h27.67Z"/><path class="cls-5" d="M441.3,457.07c-.51-6.39-1.14-14.33-1.78-22.27,5.83,5.47,11.21,11.58,17.66,16.2,5.59,4,12.88,5.73,17.69-1.27,4.48-6.51-.76-11-5.45-14.72-7.21-5.75-14.91-10.9-21.9-16.89-9.91-8.49-12.13-21.41-6.16-31.94s18.05-14.67,30.73-11.15c5,1.38,10.38,1.36,17.07,2.15v18.74c-3.5-2.78-6.18-5.09-9.06-7.15-3.83-2.75-7.52-6.48-11.83-7.54-3-.74-7.95,1.44-10.09,4-1.29,1.53.06,7.34,2.09,9.23,5.61,5.25,12.27,9.36,18.4,14.07,9.2,7.07,18.29,14.35,17.25,27.74-1.5,19.14-17.55,28.52-38.17,22.78C453.37,457.79,448.62,457.88,441.3,457.07Z"/><path class="cls-6" d="M276.64,384.8c0,19.52.07,37.56,0,55.59-.07,13.92,9.44,6.48,15.62,6.45-4,9.56-13,14.59-22.93,12.51s-16.82-8-17-18.81c-.31-18-.08-36.08-.08-54.82l-10.66-1.6,34.55-37.33v30c5.37,0,9.4-.44,13.26.16,2.36.36,4.48,2.32,6.7,3.56-2.38,1.43-4.6,3.58-7.16,4.1C285.42,385.34,281.68,384.8,276.64,384.8Z"/><path class="cls-7" d="M105.45,350.93l7,2.48c-8.06,18-16.06,35.95-24.24,53.85-1.79,3.91-4.24,7.52-6.39,11.27l-2.91-3.29Z"/></g><g id="ICONO"><path class="cls-1" d="M334.85,11.09,139.37,229.27C106.24,184.79,111.9,109,149.48,59.18,192.12,2.63,271.59-13.37,334.85,11.09Z"/><path class="cls-6" d="M194.91,287.92C266.58,225.76,337,164.77,407.29,103.59c9.45-8.22,12.13-3.46,15.14,5.72,26.65,81.41-25.6,173.66-111.2,194.6C271.48,313.64,233,309.43,194.91,287.92Z"/><path class="cls-8" d="M128.85,293.74c2.77-3.28,5.39-6.7,8.33-9.83C220,195.8,302.72,107.52,386.23,20c6.45-6.76,18.83-7.85,29.49-12,4.45,18.06,1.78,28.53-10.22,39.33-88,79.18-175.28,159.25-262.79,239-3.66,3.33-7.44,6.52-11.17,9.78Z"/><path class="cls-9" d="M416.09,48.33c7.26,25-2.4,39.55-20.55,54.13C322.62,161.06,251.09,221.39,179,281.05c-3.58,3-7.3,5.74-10.95,8.61l-2.43-3Z"/><path class="cls-10" d="M382.39,11.1,154.1,241.83l-3.45-3c9.69-11.87,19.14-24,29.12-35.57,51.09-59.47,103.15-118.14,153-178.64C347.41,6.82,363.56,13.38,382.39,11.1Z"/></g></g></g></g></svg>