<svg xmlns="http://www.w3.org/2000/svg" viewBox="0 0 464 464"><defs><style>.cls-1{fill:#01379a;}.cls-2{fill:#fcfdfd;}.cls-3{fill:#ecf3f6;}</style></defs><g id="Capa_2" data-name="Capa 2"><g id="PORTAFOLIO"><g id="LOGO_GP"><path class="cls-1" d="M231.94,463.91q-113.68,0-227.38.06c-3.13,0-4.56,0-4.56-4.13Q.24,231.95,0,4C0,.46.94,0,4.2,0Q232.08.17,460,0c3.57,0,4,.91,4,4.17q-.15,227.91,0,455.82c0,3.57-.91,4-4.17,4Q345.89,463.84,231.94,463.91Zm19-279c-2.15.09-4.3.27-6.45.28-26.7,0-53.41,0-80.12.06-1.68,0-3.63-.91-5.08.82-.1.64-.19,1.28-.28,1.92-.1.07-.27.14-.28.22a3.91,3.91,0,0,0,.07.67c-1.88,11.16-3.74,22.34-5.67,33.5-.49,2.84,1.17,2.83,3.18,2.82,7.86-.05,15.71,0,24.53,0-7.24,11.4-17.26,14.68-28.75,14.61-10.92-.06-19.6-6.85-23.22-17.2-2.92-8.35-2.31-16.58.11-24.83a48.72,48.72,0,0,1,19.38-27.09c7-5,14.47-4.39,22.18-4.78,6-.3,10.84,1.59,14.65,5.91,1.87,2.12,3.28,1.37,5.16.49,17.3-8.12,34.59-16.27,52-24.22,3.15-1.44,3-2.75,1.18-5.12A59.26,59.26,0,0,0,227,128c-23.45-14.21-48.78-17.71-75.46-12.88C103.06,123.86,68,160.24,64.4,211.31,63.08,230,67.59,247.28,80,262c13.62,16.05,32.42,22.32,52,25.54,10.53,1.74,21.83.69,32.64-1.54,30.89-6.36,56.62-20.71,74.13-47.82.77-1.2,1.35-2.64,3.56-2.55-.16,2-.16,4-.48,6-2.15,13.29-4.39,26.57-6.56,39.86-.42,2.55-1.46,5.27,3.19,5.22,17.15-.2,34.3-.19,51.45-.12,3.15,0,4.58-.73,5.09-4.28,2.15-15,4.79-29.87,7.08-44.82.42-2.72,1.47-3.51,4.16-3.47,10.32.15,20.65.26,31,0,16.21-.42,30.79-5.5,42.51-17,17.26-16.89,22.43-38.06,19.7-61.32-1.52-13-8.4-23.3-19.75-30.28s-24-9.44-37.21-9.45q-36,0-71.94,0c-8.43,0-8.66,0-10,8.18C257.21,144.33,254.13,164.62,251,184.89ZM83,319.3l-2.51.35c-7.79,1.2-13.43,10-12.68,19.87.71,9.31,6.85,13.41,15.43,10.09,1.65-.63,2.72-.35,4.34,0,2.31.47,6.23,2.28,7.15-1.7,2.84-12.24,5.2-24.6,7.76-36.9.24-1.17,0-1.73-1.32-2.05-4.31-1.06-6.63.28-7.59,4.61a41.2,41.2,0,0,0-1,4.87c-.34,3.72-1.37,5.09-4.9,2.26C86.36,319.65,84.24,319.65,83,319.3Zm226.5,17.35c-.29,8.41,5.13,14,13.86,14.17a17,17,0,0,0,17.3-16.92c.2-8.92-4.57-14.1-13.38-14.46C319.51,319.12,309.15,323.7,309.47,336.65Zm-66.66.16c0,8.79,5.27,14.1,13.89,14,9.77-.1,17.09-7.58,17.18-17.55.09-8.64-5.16-13.83-14-13.88C249.81,319.33,242.81,326.49,242.81,336.81Zm-121.72,1c2.33,0,4.66,0,7,0,1.11,0,2.2.18,2.86-1.32,2.65-6-1.61-14.95-8-16.58-10-2.54-18.79,3.85-20.19,14.59-.84,6.47,1.57,11.85,6.49,14.52a15.29,15.29,0,0,0,17.2-2.24c1.37-1.29,3.71-3.1,2.15-4.75s-4.5-1.94-6.88-.49c-.82.5-1.33,1.52-2.14,2.05-2.35,1.54-4.74,1.53-6.84-.44-1.22-1.14-2.35-2.63-1.67-4.39.62-1.6,2.34-.8,3.55-.9C116.75,337.72,118.93,337.84,121.09,337.84Zm62.33-18.42c-5.95.06-10.51,1.23-13.43,5.79-.53.82-1.86,2.36,0,2.74,2.41.5,5.21,2.11,7.43-.46a5.75,5.75,0,0,1,4.91-1.87c1.94,0,3.19.89,3.28,2.95.08,1.89-1.11,2.6-2.79,2.78-2.65.27-5.31.43-7.93.85-4.12.66-7.75,2.16-9,6.72-.95,3.61-.57,7.09,2.37,9.63,3.61,3.1,7.65,2.76,11.59.5,1.51-.86,2.23-1.29,3.8.54s7.37.16,7.19-1.52c-.55-5.45,1.32-10.51,2.26-15.72C194.72,323.48,191.47,319.47,183.42,319.42Zm175.66-.06a44.08,44.08,0,0,0-5.75,1.05c-3.94,1.24-6.85,3.89-7.14,8.11-.3,4.37,2.44,7,6.46,8.41,2.35.81,4.74,1.53,7.05,2.45.87.35,2,.89,2,2a2.72,2.72,0,0,1-2,2.56c-3.43,1.29-6.44,1-8.89-2.12s-6.18-1.37-8-.09c-2,1.43.74,3.77,2.12,5.16,5.22,5.22,17.35,5.14,22.58,0,4.45-4.36,3.63-10.72-1.95-13.51a70.92,70.92,0,0,0-8.83-3.33,2.25,2.25,0,0,1-1.8-2.53c.06-1.57,1.14-1.95,2.29-2.16,2.63-.49,4.79.42,6.86,2.11a5.24,5.24,0,0,0,7.42-.66c1.48-2-1.21-4.11-3.12-5.45C365.78,319.6,362.72,319.59,359.08,319.36ZM146.77,350.87a20.09,20.09,0,0,0,7.62-1.53c3.93-1.79,6.54-4.7,6.47-9.22-.06-4.3-3-6.39-6.68-7.67-2.19-.77-4.4-1.5-6.61-2.2-1.3-.42-2.73-.81-2.61-2.5.14-1.93,1.83-2.26,3.29-2.43a7.51,7.51,0,0,1,6.35,2.19c2.57,2.44,6.08,1.08,7.46-.51,1.77-2-1.1-4.07-2.88-5.39-4.53-3.36-15.17-2.73-19.35,1-4.67,4.11-3.88,10.78,1.74,13.49,2.68,1.29,5.59,2.09,8.36,3.19,1,.42,2.21.9,2.16,2.4s-1.05,2-2.17,2.42c-3.33,1.31-6.25.71-8.51-2.1-2.58-3.23-6.36-1.6-7.94-.26-1.94,1.63.84,4.11,2.44,5.64C138.86,350.17,142.79,350.42,146.77,350.87ZM289.12,309c-3.49-.91-4.64,1-5.07,4.1-.4,2.79-1.07,5.54-1.65,8.3-1.77,8.44-3.48,16.9-5.37,25.31-1.26,5.6,3.65,2.52,5.42,3.78,2.26,1.62,2.25-.81,2.6-2.46,2.43-11.68,4.87-23.36,7.54-35C293.36,309.72,292.75,308.3,289.12,309Zm-79.63,15.58c1.8-4.74-.38-4.56-2.58-4.53s-4.25-.41-4.82,2.76c-1.33,7.33-2.66,14.68-4.55,21.87-1.2,4.57-.11,5.82,4.48,5.36,2.27-.23,3.1-.81,3.49-3a95.34,95.34,0,0,1,2.8-12.08c1.34-4.24,3.5-8.18,8.79-8.05,3.5.09,3-2.93,4.26-4.61.48-.65,1-1.72,0-2.16a7.39,7.39,0,0,0-5.82-.18C213.67,320.68,212.26,322.1,209.49,324.62ZM295.88,350c2.57-.2,4.74.82,5.4-2.62,2.31-12,5-23.92,7.5-35.87.2-.93.56-1.92-.69-2.54-2.93-1.45-7.34.51-8,3.68-2.34,11-4.61,22.08-7,33.11C292.48,348.68,292.55,350.82,295.88,350Zm-73.34-.12c3.42.74,5.17-.34,5.61-4.12a67.25,67.25,0,0,1,2.62-11.1c1.32-4.47,3.85-7.62,9-7.88,3.61-.17,4-3.85,3.91-5.85s-3.15-1.5-5-1.11a9.61,9.61,0,0,0-3.15,1.38c-1.32.85-2,2-3.76-.1-2.41-2.84-6.77-1.16-7.54,2.5-1.57,7.48-2.9,15-4.68,22.44C218.83,349.1,219,350.62,222.54,349.89Zm167.63-39.08A10.2,10.2,0,0,0,380,320.9a7.34,7.34,0,0,0,7.93,7.66,10.78,10.78,0,0,0,10-10.51C397.83,313.69,394.7,310.77,390.17,310.81Z"/><path class="cls-2" d="M159,188l.28-1.92q43.26,0,86.53,0c1.77,0,3.71.46,5.12-1.18,3.18-20.27,6.26-40.56,9.57-60.8,1.35-8.21,1.58-8.17,10-8.18q36,0,71.94,0c13.19,0,25.79,2.42,37.21,9.45s18.23,17.25,19.75,30.28c2.73,23.26-2.44,44.43-19.7,61.32-11.72,11.48-26.3,16.56-42.51,17-10.32.26-20.65.15-31,0-2.69,0-3.74.75-4.16,3.47-2.29,15-4.93,29.85-7.08,44.82-.51,3.55-1.94,4.29-5.09,4.28-17.15-.07-34.3-.08-51.45.12-4.65.05-3.61-2.67-3.19-5.22,2.17-13.29,4.41-26.57,6.56-39.86.32-1.93.32-3.92.48-6-2.21-.09-2.79,1.35-3.56,2.55-17.51,27.11-43.24,41.46-74.13,47.82-10.81,2.23-22.11,3.28-32.64,1.54C112.46,284.27,93.66,278,80,262c-12.45-14.67-17-31.91-15.64-50.64,3.61-51.07,38.66-87.45,87.09-96.22,26.68-4.83,52-1.33,75.46,12.88a59.26,59.26,0,0,1,16.56,15c1.8,2.37,2,3.68-1.18,5.12-17.38,7.95-34.67,16.1-52,24.22-1.88.88-3.29,1.63-5.16-.49-3.81-4.32-8.62-6.21-14.65-5.91-7.71.39-15.15-.17-22.18,4.78A48.72,48.72,0,0,0,129,197.74c-2.42,8.25-3,16.48-.11,24.83,3.62,10.35,12.3,17.14,23.22,17.2,11.49.07,21.51-3.21,28.75-14.61-8.82,0-16.67,0-24.53,0-2,0-3.67,0-3.18-2.82,1.93-11.16,3.79-22.34,5.67-33.5A1.09,1.09,0,0,0,159,188Zm157.82,3.24c5.87,0,11.57-.7,16.65-4a16.43,16.43,0,0,0,6.67-16.54c-1.33-6-6.19-7-11.26-8-3.81-.7-7.61-.25-11.4-.5-2.37-.16-3.47.46-3.82,3.11-.92,7-2.09,14-3.46,21-.73,3.73-.17,5.7,4.14,5A14.65,14.65,0,0,1,316.84,191.21Z"/><path class="cls-3" d="M83,319.3c1.27.35,3.39.35,4.69,1.38,3.53,2.83,4.56,1.46,4.9-2.26a41.2,41.2,0,0,1,1-4.87c1-4.33,3.28-5.67,7.59-4.61,1.3.32,1.56.88,1.32,2.05-2.56,12.3-4.92,24.66-7.76,36.9-.92,4-4.84,2.17-7.15,1.7-1.62-.33-2.69-.61-4.34,0-8.58,3.32-14.72-.78-15.43-10.09-.75-9.84,4.89-18.67,12.68-19.87Zm-7,17.63c-.18,3.35.37,6.26,4,7.13s6-1.28,7.46-4.33c1.24-2.68,2.18-5.56,1.58-8.61A6,6,0,0,0,84,326c-2.51-.4-4.44,1-5.7,3.17C76.9,331.58,75.78,334.14,76,336.93Z"/><path class="cls-3" d="M309.47,336.65c-.32-12.95,10-17.53,17.78-17.21,8.81.36,13.58,5.54,13.38,14.46a17,17,0,0,1-17.3,16.92C314.6,350.6,309.18,345.06,309.47,336.65Zm8.52-.57c-.23,3.78.68,6.37,3.72,7.59,3.3,1.33,5.81-.22,7.77-2.8a13.86,13.86,0,0,0,2.76-9.36c-.27-4.62-4.26-6.93-8.53-5C319.23,328.47,318.66,332.66,318,336.08Z"/><path class="cls-3" d="M242.81,336.81c0-10.32,7-17.48,17.05-17.42,8.86.05,14.11,5.24,14,13.88-.09,10-7.41,17.45-17.18,17.55C248.08,350.91,242.82,345.6,242.81,336.81ZM265.52,332c0-2.91-1.14-5.82-5.41-6.16-4.7-.38-8.86,4.81-9.05,11.15-.12,4.11,2.37,7,6,7C261.48,344,265.32,338.92,265.52,332Z"/><path class="cls-3" d="M121.09,337.84c-2.16,0-4.34-.12-6.49,0-1.21.1-2.93-.7-3.55.9-.68,1.76.45,3.25,1.67,4.39,2.1,2,4.49,2,6.84.44.81-.53,1.32-1.55,2.14-2.05,2.38-1.45,5.33-1.15,6.88.49s-.78,3.46-2.15,4.75a15.29,15.29,0,0,1-17.2,2.24c-4.92-2.67-7.33-8.05-6.49-14.52,1.4-10.74,10.24-17.13,20.19-14.59,6.4,1.63,10.66,10.6,8,16.58-.66,1.5-1.75,1.3-2.86,1.32C125.75,337.87,123.42,337.84,121.09,337.84Zm-3.4-5c1.69-1.63,5.45,1.85,5.65-2.49.13-3.07-2-4.85-5.16-4.65s-5.91,2-5.89,5C112.32,334.21,116,331.34,117.69,332.79Z"/><path class="cls-3" d="M183.42,319.42c8.05.05,11.3,4.06,9.71,12.93-.94,5.21-2.81,10.27-2.26,15.72.18,1.68-5.64,3.34-7.19,1.52s-2.29-1.4-3.8-.54c-3.94,2.26-8,2.6-11.59-.5-2.94-2.54-3.32-6-2.37-9.63,1.2-4.56,4.83-6.06,9-6.72,2.62-.42,5.28-.58,7.93-.85,1.68-.18,2.87-.89,2.79-2.78-.09-2.06-1.34-2.91-3.28-2.95a5.75,5.75,0,0,0-4.91,1.87c-2.22,2.57-5,1-7.43.46-1.84-.38-.51-1.92,0-2.74C172.91,320.65,177.47,319.48,183.42,319.42Zm.47,17.28a19.57,19.57,0,0,0-7.76,1.29c-1.88.78-3.21,2-2.47,4.1s2.48,2.37,4.47,2C182.12,343.42,183.14,340.44,183.89,336.7Zm-6.53,10.89c-.81-2.13-2.54-1.52-3.74-1.78-1-.23-1.82-1.74-3-.64a1.55,1.55,0,0,0-.19,1.34c.58,1.57,2,1.43,3.3,1.42C174.8,347.93,175.9,347.74,177.36,347.59Z"/><path class="cls-3" d="M359.08,319.36c3.64.23,6.7.24,9.28,2,1.91,1.34,4.6,3.41,3.12,5.45a5.24,5.24,0,0,1-7.42.66c-2.07-1.69-4.23-2.6-6.86-2.11-1.15.21-2.23.59-2.29,2.16a2.25,2.25,0,0,0,1.8,2.53,70.92,70.92,0,0,1,8.83,3.33c5.58,2.79,6.4,9.15,1.95,13.51-5.23,5.13-17.36,5.21-22.58,0-1.38-1.39-4.15-3.73-2.12-5.16,1.83-1.28,5.48-3.12,8,.09s5.46,3.41,8.89,2.12a2.72,2.72,0,0,0,2-2.56c0-1.14-1.12-1.68-2-2-2.31-.92-4.7-1.64-7.05-2.45-4-1.37-6.76-4-6.46-8.41.29-4.22,3.2-6.87,7.14-8.11A44.08,44.08,0,0,1,359.08,319.36Z"/><path class="cls-3" d="M146.77,350.87c-4-.45-7.91-.7-10.86-3.52-1.6-1.53-4.38-4-2.44-5.64,1.58-1.34,5.36-3,7.94.26,2.26,2.81,5.18,3.41,8.51,2.1,1.12-.44,2.11-1,2.17-2.42s-1.11-2-2.16-2.4c-2.77-1.1-5.68-1.9-8.36-3.19-5.62-2.71-6.41-9.38-1.74-13.49,4.18-3.69,14.82-4.32,19.35-1,1.78,1.32,4.65,3.36,2.88,5.39-1.38,1.59-4.89,2.95-7.46.51a7.51,7.51,0,0,0-6.35-2.19c-1.46.17-3.15.5-3.29,2.43-.12,1.69,1.31,2.08,2.61,2.5,2.21.7,4.42,1.43,6.61,2.2,3.68,1.28,6.62,3.37,6.68,7.67.07,4.52-2.54,7.43-6.47,9.22A20.09,20.09,0,0,1,146.77,350.87Z"/><path class="cls-3" d="M289.12,309c3.63-.74,4.24.68,3.47,4-2.67,11.63-5.11,23.31-7.54,35-.35,1.65-.34,4.08-2.6,2.46-1.77-1.26-6.68,1.82-5.42-3.78,1.89-8.41,3.6-16.87,5.37-25.31.58-2.76,1.25-5.51,1.65-8.3C284.48,310.06,285.63,308.13,289.12,309Z"/><path class="cls-3" d="M209.49,324.62c2.77-2.52,4.18-3.94,6.1-4.64a7.39,7.39,0,0,1,5.82.18c.92.44.43,1.51,0,2.16-1.23,1.68-.76,4.7-4.26,4.61-5.29-.13-7.45,3.81-8.79,8.05a95.34,95.34,0,0,0-2.8,12.08c-.39,2.21-1.22,2.79-3.49,3-4.59.46-5.68-.79-4.48-5.36,1.89-7.19,3.22-14.54,4.55-21.87.57-3.17,2.66-2.73,4.82-2.76S211.29,319.88,209.49,324.62Z"/><path class="cls-3" d="M295.88,350c-3.33.81-3.4-1.33-2.78-4.24,2.36-11,4.63-22.08,7-33.11.68-3.17,5.09-5.13,8-3.68,1.25.62.89,1.61.69,2.54-2.52,12-5.19,23.87-7.5,35.87C300.62,350.83,298.45,349.81,295.88,350Z"/><path class="cls-3" d="M222.54,349.89c-3.57.73-3.71-.79-3-3.84,1.78-7.43,3.11-15,4.68-22.44.77-3.66,5.13-5.34,7.54-2.5,1.79,2.11,2.44.95,3.76.1a9.61,9.61,0,0,1,3.15-1.38c1.88-.39,4.94-.93,5,1.11s-.3,5.68-3.91,5.85c-5.2.26-7.73,3.41-9,7.88a67.25,67.25,0,0,0-2.62,11.1C227.71,349.55,226,350.63,222.54,349.89Z"/><path class="cls-3" d="M390.17,310.81c4.53,0,7.66,2.88,7.75,7.24a10.78,10.78,0,0,1-10,10.51A7.34,7.34,0,0,1,380,320.9,10.2,10.2,0,0,1,390.17,310.81Zm3.69,5.28c-1.81-3.51-4.29-4-8.18-1.49-3.33,2.11-4.65,7-2.24,9.43,2.63,2.66,5.65,3.29,8.4-.13C395.79,321.41,396.34,319.28,393.86,316.09Z"/><path class="cls-3" d="M251,184.89c-1.41,1.64-3.35,1.18-5.12,1.18q-43.26,0-86.53,0c1.45-1.73,3.4-.81,5.08-.82,26.71-.07,53.42,0,80.12-.06C246.65,185.16,248.8,185,251,184.89Z"/><path class="cls-3" d="M159,188a1.09,1.09,0,0,1-.21.89,3.91,3.91,0,0,1-.07-.67C158.75,188.11,158.92,188,159,188Z"/><path class="cls-1" d="M316.84,191.21a14.65,14.65,0,0,0-2.48,0c-4.31.74-4.87-1.23-4.14-5,1.37-6.94,2.54-13.94,3.46-21,.35-2.65,1.45-3.27,3.82-3.11,3.79.25,7.59-.2,11.4.5,5.07.94,9.93,2,11.26,8a16.43,16.43,0,0,1-6.67,16.54C328.41,190.51,322.71,191.21,316.84,191.21Z"/><path class="cls-1" d="M76,336.93c-.24-2.79.88-5.35,2.29-7.81,1.26-2.2,3.19-3.57,5.7-3.17a6,6,0,0,1,5,5.17c.6,3.05-.34,5.93-1.58,8.61-1.41,3-3.77,5.2-7.46,4.33S75.84,340.28,76,336.93Z"/><path class="cls-1" d="M318,336.08c.67-3.42,1.24-7.61,5.72-9.6,4.27-1.9,8.26.41,8.53,5a13.86,13.86,0,0,1-2.76,9.36c-2,2.58-4.47,4.13-7.77,2.8C318.67,342.45,317.76,339.86,318,336.08Z"/><path class="cls-1" d="M265.52,332c-.2,6.9-4,12-8.48,12-3.61,0-6.1-2.91-6-7,.19-6.34,4.35-11.53,9.05-11.15C264.38,326.2,265.5,329.11,265.52,332Z"/><path class="cls-1" d="M117.69,332.79c-1.73-1.45-5.37,1.42-5.4-2.17,0-2.94,2.77-4.78,5.89-5s5.29,1.58,5.16,4.65C123.14,334.64,119.38,331.16,117.69,332.79Z"/><path class="cls-1" d="M183.89,336.7c-.75,3.74-1.77,6.72-5.76,7.41-2,.35-3.77,0-4.47-2s.59-3.32,2.47-4.1A19.57,19.57,0,0,1,183.89,336.7Z"/><path class="cls-2" d="M177.36,347.59c-1.46.15-2.56.34-3.66.34-1.28,0-2.72.15-3.3-1.42a1.55,1.55,0,0,1,.19-1.34c1.21-1.1,2,.41,3,.64C174.82,346.07,176.55,345.46,177.36,347.59Z"/><path class="cls-1" d="M391.84,323.9c-2.75,3.42-5.77,2.79-8.4.13-2.41-2.46-1.09-7.32,2.24-9.43,3.89-2.47,6.37-2,8.18,1.49L394,316c-2.36-1.72-5.88-2.15-7.37-.67-1.86,1.86-2.11,5.38-1.39,8.39,0,.18.53.24.77.34,1.89-.28.33-3,2.39-3.2,1.25,1,.85,3.92,3.61,3.22Z"/><path class="cls-1" d="M393.86,316.09c2.48,3.19,1.93,5.32-2,7.81l.15.13c-1.68-3.27,2.6-5.07,2-8.08Z"/><path class="cls-3" d="M394,316c.61,3-3.67,4.81-2,8.08-2.76.7-2.36-2.21-3.61-3.22-2.06.17-.5,2.92-2.39,3.2-.24-.1-.73-.16-.77-.34-.72-3-.47-6.53,1.39-8.39C388.1,313.8,391.62,314.23,394,316Z"/></g></g></g></svg>