<svg xmlns="http://www.w3.org/2000/svg" viewBox="0 0 541.02 243.85"><defs><style>.cls-1{fill:#f4d651;}.cls-2{fill:#2f509f;}</style></defs><g id="Capa_2" data-name="Capa 2"><g id="PORTAFOLIO"><g id="LOGO_KEPLER"><path class="cls-1" d="M528.69,119.69h-8c-1.12,0-2.37.31-3.33-.08-1.13-.46-2.18-.18-3.25-.27a24.84,24.84,0,0,1-3.35-.07c-1.33-.31-2.71,0-4-.39a15,15,0,0,0-4.16-.28c-1,0-1.82-.54-2.84-.44a3.75,3.75,0,0,1-2.83-.34c-2.25.24-4.34-1.16-6.6-.72-.68.13-1.07-.48-1.72-.43s-1.1.27-1.57-.26c-.12-.13-.46-.08-.7-.08a9.47,9.47,0,0,1-3.82-.72,3.2,3.2,0,0,0-.54,0c-.7-.14-1.41.22-2.13-.32-.45-.35-1.34.23-1.86-.43a18.9,18.9,0,0,1-4.73-.81c-1.53-.29-3.19-.16-4.59-1.06-1.36.22-2.54-.49-3.81-.69-.5-.08-.87-.36-1.33-.43-.29,0-.41-.43-.78-.38a7,7,0,0,1-3.25-.72c-1-.35-2.16-.48-3.23-.78a19,19,0,0,0-3.05-.8,10.3,10.3,0,0,1-2.61-.88c-1-.42-2.11-.6-3.16-.94-.88-.27-1.72-.65-2.58-1a18.85,18.85,0,0,0-2.81-.92,24.94,24.94,0,0,1-3.55-1.32,54.78,54.78,0,0,0-6.12-2.36,1.13,1.13,0,0,1-.64-.28,4.15,4.15,0,0,0-1.87-.91c-.9-.33-2-.47-2.61-1.34-1.56-.12-2.57-1.69-4.2-1.59-1.21-1-2.82-1.44-4-2.51-.18-.16-.35-.44-.55-.46-.88-.13-.58-.72-.35-1.06s.22-.8.62-1.07.54-.89.71-1.38c.08-.21,0-.49.23-.65A4.68,4.68,0,0,0,421.33,88c.33-.89,1.36-1.42,1.19-2.51.92-.64,1.05-1.82,1.8-2.63a14.32,14.32,0,0,0,1.54-2.71A5.63,5.63,0,0,1,427,78.38c.42-.36.46-.94.75-1.37a30.45,30.45,0,0,1,2.52-3.83,17.45,17.45,0,0,0,2.26-3.54,22.94,22.94,0,0,1,1.59-2.31c1.8-2.43,3.22-5.12,5.29-7.36a5.27,5.27,0,0,0,.54-.89,34,34,0,0,1,4.21-5.36c.46-.52.75-1.19,1.16-1.76a10.21,10.21,0,0,1,1.9-2.39c.56-.41.7-1.11,1.17-1.58s.75-1,1.12-1.37c.9-1,1.66-2.11,2.6-3.06A45.58,45.58,0,0,0,456,39a37.35,37.35,0,0,1,3.53-3.59c1.38-1.37,2.54-2.92,3.78-4.41.4-.47,1-.75,1.49-1.22,1.79-1.83,3.6-3.63,5.42-5.42.46-.46.8-1.09,1.55-1.21a.68.68,0,0,0,.39-.39c.39-1,1.42-1.37,2.11-2.08a19.82,19.82,0,0,1,2.26-2.23c1.19-.9,2.25-2,3.47-2.84a37.45,37.45,0,0,0,2.9-2.49,35.6,35.6,0,0,1,4.81-3.74c1-.63,1.71-1.69,2.77-2.33,2-1.22,3.67-3,5.82-4,1-1.32,2.86-1.46,3.92-2.72.45-.54,1.07-.11,1.57-.28.76-.25.69.45,1,.78a22.28,22.28,0,0,1,3.21,5.4A23.5,23.5,0,0,0,508,9.48c.16.24.4.39.51.72.7,2.1,2.14,3.84,2.93,5.89.31.78,1.05,1.27,1.16,2.13s.81,1.3,1.09,2c.58,1.39,1.17,2.76,1.88,4.08.61,1.13,1.31,2.23,1.81,3.36.8,1.78,1.5,3.62,2.33,5.39.95,2,1.67,4.18,2.66,6.18.83,1.67,1.34,3.44,2.11,5.12.9,2,1.51,4.1,2.34,6.13.59,1.44,1.08,2.91,1.56,4.4a40.2,40.2,0,0,0,1.48,4.42,21.53,21.53,0,0,1,1.43,4.65,12.74,12.74,0,0,0,.78,1.73c.44,1.21.44,2.5,1,3.71a16.61,16.61,0,0,1,.92,3.56c.25,1.41.91,2.74,1.26,4.14,0,.16.2.33.18.48a5.44,5.44,0,0,0,.77,3.42c.48.91.13,2,.74,2.88-.26,1.48,1.22,2.65.75,4.17.71.8.12,1.81.4,2.64a8.65,8.65,0,0,0,.72,2.5c-.29,1.36.42,2.61.41,4a14.12,14.12,0,0,0,.52,2.76c.19,1,.34,2,.57,2.94.59,2.55,0,5.17.44,7.68A67.8,67.8,0,0,1,541,118a1.49,1.49,0,0,1-1.67,1.67C535.8,119.7,532.25,119.69,528.69,119.69Z"/><path class="cls-2" d="M446.07,210.54v30.61c0,.37,0,.75,0,1.12a1.54,1.54,0,0,1-1.62,1.54h-26c-.38,0-.75,0-1.12,0a.83.83,0,0,1-.81-.83c0-.37,0-.74,0-1.12V147.47c0-1.26.34-1.57,1.71-1.61h.93q20.94,0,41.87,0c1.95,0,3.87.57,5.83.36,1.7.71,3.66.14,5.35,1.09.59.33,1.48-.32,2.07.4,1.11-.34,1.85.65,2.86.8a7.92,7.92,0,0,1,2.71,1.09c1.51.89,3,1.87,4.41,2.88a25.75,25.75,0,0,1,8.45,10.67c.22,1.87,1.35,3.53,1.19,5.48.86.95-.14,2.31.75,3.25a25.09,25.09,0,0,1,0,3.36c-.19,1.34-.37,2.69-.6,4s-.69,2.62-.85,4a3,3,0,0,1-.36,1c-1.81,3.78-3.4,6.2-6.28,8.4a21.54,21.54,0,0,1-9.36,4.44c-.43.08-.58.36-.84.66,1.75.31,3.36,1,5.09,1.31a9.88,9.88,0,0,1,4.22,2.39,14.58,14.58,0,0,1,3.66,4.24,23.34,23.34,0,0,1,2.15,5.28c.34,1.29,1.08,2.52.94,3.91-.06.5.6.65.4,1.16s.48,1.06.38,1.71,0,1.13,0,1.68.52,1.19.42,1.91c-.07.55-.27,1.22.3,1.73.1.09,0,.36.05.54.16.81-.21,1.63.3,2.5.37.65-.1,1.65.42,2.43a1.58,1.58,0,0,1,0,.92,14,14,0,0,0,.36,3,26.46,26.46,0,0,0,.67,2.89c.35,2.21,1.18,4.28,1.59,6.46,0,.12,0,.3,0,.35.44.31.51.9.24,1.11a2.14,2.14,0,0,1-1.44.56c-.93-.06-1.87,0-2.81,0H469c-1.44,0-1.94-.44-2-1.89a2.44,2.44,0,0,0-.41-1.51c-.71-.81,0-1.94-.73-2.7.24-1.17-.61-2.23-.38-3.4-.81-1.22.08-2.76-.75-4,.28-1.41-.58-2.73-.36-4.14.09-.58-.32-1-.36-1.53a30.63,30.63,0,0,0-.78-4.36,21.19,21.19,0,0,0-1-3.14,4.77,4.77,0,0,1-.55-1.47,2.37,2.37,0,0,0-.79-1.34c-.65-.58-1.24-1.23-1.86-1.84-.17-.17-.35-.41-.56-.45-1.38-.23-2.56-1.21-4-1.13s-2.72-.53-4.14-.41S447.6,210.54,446.07,210.54Zm-.75-30.48q0,4.22,0,8.41c0,.81.29,1.09,1.06,1.13.31,0,.62,0,.93,0,1.75,0,3.5-.1,5.23,0s3.38-.43,5.08-.4a2,2,0,0,0,.85-.21,16.75,16.75,0,0,1,2.61-.9,5.51,5.51,0,0,0,2.74-1.51c1-1.09,2.4-1.92,2.51-3.63.6-.5,0-1.26.32-1.73,1-1.69-.33-3.3,0-4.94a10.83,10.83,0,0,0-3.52-3.95c-2.44-1.58-5.2-1.83-7.89-2.13a72.67,72.67,0,0,0-8.22-.06,1.51,1.51,0,0,0-1.66,1.67Q445.32,176,445.32,180.06Z"/><path class="cls-2" d="M29.23,200.92v1.84q0,19.35,0,38.69c0,2-.16,2-2.09,2-6.73,0-13.45,0-20.18,0-1.36,0-2.61.59-4,.41a7.18,7.18,0,0,1-.93,0,6.77,6.77,0,0,1-1.76-.71c-.53-.35-.24-1-.24-1.55q0-46.72,0-93.45c0-.25,0-.5,0-.75,0-.81.29-1.09,1.09-1.1a50.18,50.18,0,0,0,6.72-.08,44.44,44.44,0,0,1,5.27-.29c1.81,0,3.61,0,5.42,0,1,0,1.9.27,2.84.33a10.14,10.14,0,0,0,4.16-.26,4.39,4.39,0,0,1,2.64.26c.75.23,1,.51,1,1.22,0,.38,0,.75,0,1.13v36.25c0,.22.12.32.33.34a.35.35,0,0,0,.41-.26c.35-.94,1-1.72,1.43-2.59.8-1.75,1.89-3.32,2.71-5a31.15,31.15,0,0,1,2.28-3.91c.41-.59.21-1.5,1-1.82.42-1.67,1.67-2.89,2.32-4.46a34.06,34.06,0,0,1,2.43-4c.27-.44.42-.95.68-1.4,1.65-2.94,3.23-5.9,5-8.8a42.53,42.53,0,0,0,2.36-4.43,4,4,0,0,1,4.11-2.52c4.43,0,8.85,0,13.27,0,2.18,0,4.36.06,6.54,0s4.11.66,6.2.39c1.19-.14,2.43.26,3.6-.35.29-.16.74,0,1.11,0a.91.91,0,0,1,1,.61,1.06,1.06,0,0,1-.22,1c-1.2,1.6-2.26,3.31-3.47,4.9-1.37,1.79-2.45,3.78-4,5.48-.42.47-.48,1.17-.92,1.67a37.31,37.31,0,0,0-3.14,4.31c-1,1.59-2.19,3.07-3.17,4.67-.54.86-1.29,1.55-1.76,2.44a18.15,18.15,0,0,1-1.7,2.48c-1.17,1.54-2.18,3.21-3.27,4.82-.69,1-1.37,2.08-2.11,3-.85,1.08-1.22,2.52-2.43,3.32-.22.91-1.13,1.35-1.47,2.19s-1,1.48-1.38,2.24-1.21,1.28-1.57,2.15c-.27.62-.88,1.13-.8,1.9a4.79,4.79,0,0,0,1,2.2c1.63,2.33,3.46,4.53,5,6.93s3,4.5,4.59,6.66c2.08,2.82,3.86,5.85,6.14,8.51a6.54,6.54,0,0,1,1.05,1.81c.42,1.11,1.43,1.71,2,2.69,2,3.25,4.31,6.32,6.49,9.45,1.43,2,2.9,4.06,4.37,6.08a34.5,34.5,0,0,1,3.5,5.25c.27.57.07,1.17-.49,1.16-.77,0-1.58.25-2.33-.22-.5-.31-1.08-.12-1.62-.12H54.64a7,7,0,0,0-1.12,0,1,1,0,0,1-1.08-.55c-.47-.79-.89-1.62-1.33-2.44l-3.94-7.34C45.8,230.57,44.5,228,43,225.49s-2.79-4.94-4.11-7.46c-1.65-3.18-3.38-6.32-5.14-9.45-.69-1.22-1.41-2.42-2-3.65A21.69,21.69,0,0,1,30,201.55C29.89,201.21,29.59,201.1,29.23,200.92Z"/><path class="cls-2" d="M159.33,206.05H123.86c-1.4,0-1.91.47-1.91,1.8q0,4.75,0,9.53a2.05,2.05,0,0,0,.29,1.2c.21.33.25.59.71.56s.88,0,1.31,0q18.51,0,37,0c2.14,0,2.19,0,2.18,2.09q0,10,0,20a4.09,4.09,0,0,1-.57,2.22H94.31c-.82,0-1.11-.3-1.15-1.05,0-.37,0-.75,0-1.12V148.75c0-.25,0-.5,0-.75,0-1.56.23-1.76,1.74-1.76h65a8,8,0,0,1,1.3,0,.84.84,0,0,1,.7.74,6.26,6.26,0,0,1,0,.75q0,10.47,0,20.93a1.56,1.56,0,0,1-.52,1.48,1.28,1.28,0,0,1-1,.4,8.37,8.37,0,0,0-1.12,0H123.08c-.81,0-1.11.29-1.13,1.06s0,1.62,0,2.43c0,2.43,0,4.86,0,7.29,0,.91.27,1.15,1.2,1.18.74,0,1.49,0,2.24,0H158.1c1,0,1.19.26,1.23,1.15v22.4Z"/><path class="cls-2" d="M406.07,146.24c0,4.16,0,8.2,0,12.24,0,.58-.24,1.23.31,1.75a.73.73,0,0,1,0,.7,1.7,1.7,0,0,0-.36,1.17c0,1.93,0,3.86,0,5.79,0,.46.45.74.05,1.42-.67,1.11-.48,1.23-1.74,1.23q-17.94,0-35.89,0c-1.93,0-2.11,0-2.08,2,0,3.29,0,6.58,0,10h1.92q16.53,0,33.08,0a4,4,0,0,1,2.39.57v21.12c0,.31,0,.62,0,.93a.86.86,0,0,1-.88.93,11.47,11.47,0,0,1-1.31,0h-32.9c-.37,0-.74,0-1.12,0-.91,0-1.17.27-1.17,1.2q0,5.22,0,10.46c0,1.3.13,1.42,1.52,1.42H404.6a4,4,0,0,0,1.29,0c.32-.12.53-.55.91-.15s.79.69.78,1.36c0,3.49,0,7,0,10.47v12.51c-1.61.2-67,.25-69.92.05v-1.64q0-46.62,0-93.26c0-2.31.07-2.2,2.26-2.2Z"/><path class="cls-2" d="M202,213.53V241a11.43,11.43,0,0,1,0,1.31,1.26,1.26,0,0,1-1.24,1.14H173.42s-.1-.05-.1,0c-.71-2.93-.53-5.87-.53-8.8,0-7.67,0-15.33,0-23,0-1.12.49-2.11.43-3.21a31.28,31.28,0,0,0-.05-3.36,54.56,54.56,0,0,1-.25-12.18,62.41,62.41,0,0,0,.2-9.56c-.48-4.69-.19-9.37-.27-14s-.05-9.34,0-14c0-1.94.59-3.86.36-5.82-.06-.47.09-.92-.24-1.4s.42-1,.32-1.64c0-.18.31-.12.48-.12.38,0,.75,0,1.12,0q21.49,0,43,0c.94,0,1.75.38,2.65.43s1.78-.25,2.68.31c.56.35,1.37.1,2.11.27,1.25.28,2.51.65,3.76.81s2.21.86,3.41.85c2.24,1.22,4.65,2.11,6.71,3.67a13.71,13.71,0,0,1,2.19,1.89c.89,1,2,1.78,2.94,2.83s1.76,2.27,2.64,3.4a18.55,18.55,0,0,1,2,3.66,33.59,33.59,0,0,1,2.36,6.87,27,27,0,0,1,.75,7.17c-.05,1.74,0,3.49,0,5.23,0,1,.3,2.08-.36,3,.28,1.12-.34,2.13-.42,3.21a7.65,7.65,0,0,1-.94,2.77c-.27.52-.05,1-.31,1.56-.51,1.09-1,2.21-1.53,3.28s-1.33,2.06-1.94,3.13a11.21,11.21,0,0,1-2,2.34,7,7,0,0,0-.95,1.28c-.23.37-.78.52-1.13.82-2.7,2.34-4,3.27-8.89,5.17-1.1,1-2.57,1.12-3.88,1.41s-2.7,1-4.16.83c-.82.6-1.8.15-2.64.41-1.56.47-3.18.07-4.7.38a40.94,40.94,0,0,1-7.33.32c-2.49,0-5,0-7.48,0Zm-1.12-22.33c3.81-.41,7.51.38,11.17-.47,1.05.28,2-.31,3-.41a15.36,15.36,0,0,0,2.92-1c1.83-.56,2.82-2,4.12-3.15.55-1.79,1.33-3.55,1.18-5.48,0-.44-.43-.8-.37-1.34a3.63,3.63,0,0,0-.73-3c.19-.93-.77-1.18-1.06-1.8-.22-.47-.35-.84-.91-.95s-.58-.73-1.18-.78c-.41,0-.69-.55-1.17-.76a29.72,29.72,0,0,0-5.94-1.45,32.29,32.29,0,0,1-4.15-.29,37.14,37.14,0,0,0-6-.07c-.58,0-1,.36-.9.89.21,1.91-.37,3.75-.42,5.63a27.26,27.26,0,0,0,.38,3c.08,1.05,0,2.11,0,3.17Z"/><path class="cls-2" d="M330.93,219.14c0,7.79,0,15.44,0,23.1,0,.92-.26,1.16-1.18,1.2h-.93q-33.36,0-66.73,0c-2.31,0-2.19-.08-2.19-2.26q0-47.38,0-94.78c.44-.34.95-.16,1.42-.16q12.9,0,25.79,0c1.2,0,1.52.32,1.58,1.55,0,.37,0,.75,0,1.12q0,34,0,68c0,2.32.07,2.21,2.26,2.21C304.2,219.13,317.47,219.14,330.93,219.14Z"/></g></g></g></svg>