<svg xmlns="http://www.w3.org/2000/svg" viewBox="0 0 479.74 213.41"><defs><style>.cls-1{fill:#88898d;}.cls-2{fill:#3762a8;}.cls-3{fill:#3862a8;}.cls-4{fill:#3962a8;}.cls-5{fill:#677c98;}.cls-6{fill:#4c6179;}.cls-7{fill:#4a608d;}.cls-8{fill:#e7eff7;}</style></defs><g id="Capa_2" data-name="Capa 2"><g id="PORTAFOLIO"><g id="LOGO_BURKER"><path class="cls-1" d="M469,115.64c.53.92,1,1.86,1.6,2.74a53.21,53.21,0,0,1,7.5,18.06A70.17,70.17,0,0,1,479.65,154a64.51,64.51,0,0,1-2.73,16.53,59.07,59.07,0,0,1-6.83,14.32,57.49,57.49,0,0,1-7.78,9.48,71.5,71.5,0,0,1-5.4,4.74c-2.57,2.15-5.58,3.51-8.41,5.19l-.83.46c-3.47,1.23-6.91,2.53-10.42,3.66A64.21,64.21,0,0,1,430,210.2c-1.68.33-3.44.27-5.15.45-2.17.23-4.32.56-6.49.78a24.48,24.48,0,0,1-2.57,0l-37.36.28h-1V120h1.67c10.07,0,20.16.17,30.23-.1,6.53-.17,13-1,19.55-1.54a14,14,0,0,0,1.74-.62c.51-.12,1.08,0,1.61-.13,1.45-.25,2.92-.44,4.33-.83a64,64,0,0,0,7.05-2.22c2.45-1,4.77-2.26,7.15-3.4l.51-.3,1-.63,1.65-1,4.08-3,.69-.57.33,0,.26.29,2.94,2.46,1.7,1.64,4.32,4.9Z"/><path class="cls-2" d="M459,105.66l-.33,0-.73-.5a.16.16,0,0,0-.18-.11,53.13,53.13,0,0,0-15.29-8.63h0a54.82,54.82,0,0,0-14.62-3.81h0l-3.24-.47-1.1-.06-8.68-.46c-7.07,0-14.14-.05-21.21-.05-3.87,0-7.74,0-11.62.05l-3.78-.13q0-44.86,0-89.73c0-.13,0-.27,0-.4-.08-.76.25-1,1-1,1.72,0,3.43,0,5.15,0h38.9l.5-.06,1.36.07,6.79,1.08a.12.12,0,0,0,.18,0L437.91,3l.5.11,1.67.54h0l2.73,1a.26.26,0,0,0,.24.06l.82.34.56.21,2.18,1a.21.21,0,0,0,.22.08l.3.17.74.33,5.26,3,.54.33,1.08.73a.2.2,0,0,0,.2.11l.34.24h0l4.1,3.09.22.17.56.47a.14.14,0,0,0,.16.11,67.16,67.16,0,0,1,10.16,11.34h0l.24.33.13.24.16.24h0l.23.33,0,0,3.57,6.76.08.25L477.5,42l.08.49,1,4.35.07.55c.21,1,.43,2.1.65,3.15l-.09.21v.06a2.26,2.26,0,0,0,.11.22l.36,5.29c0,.91,0,1.82,0,2.72v2.18l-.06,2.41-.22,3,0,.55-.24,1.9a.3.3,0,0,0,0,.26l-2.67,11.14a.2.2,0,0,0-.05.22c-.16.38-.31.76-.46,1.14l-.06.27-1.62,3.8h0c-1.24,2.26-2.49,4.51-3.74,6.77a.21.21,0,0,0-.09.21l-.73,1.59a.78.78,0,0,0,.05-.14l-.08,0a10.69,10.69,0,0,0-1,1A56.55,56.55,0,0,1,459,105.66Z"/><path class="cls-3" d="M73.54,76.36l.81-.3,4.37-1.31h0a7.18,7.18,0,0,0,.81-.06,37.15,37.15,0,0,1,15.07-.22c3.51.72,6.89,2,10.33,3.06h0c1.84,1.2,3.74,2.31,5.51,3.61a30.19,30.19,0,0,1,8.36,10.27c0,.07,0,.11.06.14l.52,1.1h0c.73,2.44,1.46,4.89,2.18,7.33l.11,1.07c.15,1.54.29,3.08.43,4.62,0,.71,0,1.42,0,2.13l-.75,6.55-.09.53-.18.56-.1.53L119,121.37l-.22.49-.27.61v0l-.2.3-.13.25c-2.37,4.16-5.23,8-9.3,10.53-2.87,1.81-6.05,3.14-9.08,4.68h-.14l-.12,0-4.07,1.05-.84.1-.54.15-.8.07-1.38.2-1,.06-3.53.06-1.63,0-1.09,0-.81,0-9.5-2.16h0c-1.46-.71-2.94-1.36-4.36-2.12a31.33,31.33,0,0,1-12.17-12l-.28-.54-1.08-2.19h0l-1.62-4.66-.08-.48-.48-1.92h0a24.57,24.57,0,0,1-.3-3c0-3.71.17-7.43.27-11.15a.17.17,0,0,0,0-.21c.1-.47.19-.93.29-1.4v0c0-.09.09-.19.13-.29,0-.31.1-.62.16-.94.18-.58.37-1.16.55-1.75h0l1-2.49a.17.17,0,0,0,.06-.19c.14-.3.27-.61.41-.91v-.05l1.79-3.15h0l7-7.62h0l1.09-.79c.3-.21.6-.42.91-.62L69.86,78c.07,0,.12,0,.15-.06Zm15.66,49.7c5.37-.1,10.76-3,14-9.06a21,21,0,0,0,.64-19.19c-3-6.61-8.33-10-15.48-10.22a16.62,16.62,0,0,0-15.28,7.85c-3,4.56-3.54,9.65-2.82,15C71.53,119.54,78.65,126,89.2,126.06Z"/><path class="cls-3" d="M180.16,212.88l-.53-.06-3.26-.79-.1-.05h-.11l-6.31-2.61a.25.25,0,0,0-.23-.09l-.3-.19a.24.24,0,0,0-.22-.09l-.32-.22-.25-.12-3-2-.51-.38c-.22-.22-.42-.46-.66-.66a30.29,30.29,0,0,1-9.7-15,38.65,38.65,0,0,1-.09-20.85l.13-.56q2.06-4.2,4.12-8.39l.22-.28.82-1.1h0l.95-1.15.07-.1,1.63-1.59a35.31,35.31,0,0,1,11-6.92l1-.34,9-1.85,1.35,0,.81,0h3.27c2.58.35,5.2.53,7.74,1.08a32.09,32.09,0,0,1,17.73,10.42h0l3.78,5.8a.11.11,0,0,0,0,.15l.78,1.66h0c.21.63.41,1.27.63,1.9a39.22,39.22,0,0,1,1.89,13.81l-.06,1.31c-.31,1.78-.55,3.56-.95,5.31a32.63,32.63,0,0,1-7.68,14.56l0,0-2.21,2.11h0L208.6,207l-.22.15-3.87,2.39-.5.24-4,1.69-.81.28-6,1.36-.83.06-10,0-1.07-.1Zm25.07-33.66a41.44,41.44,0,0,0-1-5.31c-2-6.7-6.36-11.08-13.29-12.45s-12.95.55-17.45,6.11c-4.09,5-4.83,11-3.62,17.19,2.95,15.08,18.37,18,27.33,11.79C202.93,192.59,205,186.84,205.23,179.22Z"/><path class="cls-4" d="M71.64,163.78a.2.2,0,0,0-.2-.09l-4.13-1.89h0l-.28-.15-.56-.11-2.18-.48L63.25,161H58.89l-1.1.09-.31.14v0l-3,.85h-.1l-.08.06a15.44,15.44,0,0,0-8,6.2c-4.55,6.83-4.7,14.15-1.7,21.57a15.22,15.22,0,0,0,9.28,8.75,25,25,0,0,0,15.95.21c1.16-.33,1.55-.91,1.25-2V187H59.28V174.87a3.08,3.08,0,0,1,.57-.12c8.13,0,16.26,0,24.39,0,1,0,.91.61,1,1.22v.81c0,2.61-.06,5.22,0,7.83q0,10.34,0,20.66v1.9c.07,1-.81,1.2-1.47,1.49-10,4.39-20.35,6-31.06,3.88-11-2.13-19.16-8.2-23.55-18.69-1.25-3-1.71-6.31-2.53-9.49l0-.52c.23-3.73.22-7.5.75-11.19.66-4.68,2.91-8.78,5.55-12.66h0l1.87-2.21h0a31.65,31.65,0,0,1,13.09-8.29c2.9-.89,5.93-1.35,8.91-2l1.88-.06.14,0,.12,0,.55,0a42.44,42.44,0,0,1,18.73,3.84.23.23,0,0,0,.22.08l6.28,4.35a1.92,1.92,0,0,0,0,.24l-2.52,3-.23.24q-3,3.41-6,6.82l-1.07.59Z"/><path class="cls-3" d="M94,61.67H94l-.06.06-1.08.53h0l-2.74,1.07h0l-2,.53-.09,0-.08,0-3,.55-1.08.09-1-.06c-9,0-18,0-27,0-1.27,0-1.72-.28-1.68-1.62.09-3.7,0-7.41,0-11.11l0-49.6,0-.12,21.19.06c1.8,0,3.6,0,5.4,0l1.89.21.56,0,1.62.25.55.05,5.88,1.73h0l3.55,2.13h0l.58.51h0l.57.49,0,0,1,1.12h0c.72,1.18,1.45,2.36,2.18,3.54l.29.8.24.84.07.51c0,.26.07.53.1.8.76,5.51-.17,10.47-4.9,14A47.93,47.93,0,0,1,90.3,31.9l2,.45.29,0a18.51,18.51,0,0,1,7,4.63l.21.26.6.82.52.82L102.56,43h0q.06,3.24.11,6.48c0,.36-.07.72-.1,1.07l-.51,1.93a.2.2,0,0,0,0,.21c-.11.28-.23.57-.35.85l-.15.36-.33.74L101,55l-.48.75a.29.29,0,0,0-.1.23l-4.61,4.65-.29.16-.54.36h0ZM68.68,52.33c3.63,0,7.19.12,10.73-.06A13.09,13.09,0,0,0,84.07,51c2.67-1.24,3.71-3.56,3.56-6.44s-1.45-4.48-4.29-5.43c-4.8-1.6-9.73-.63-14.66-.94Zm0-25.22c3.84-.14,7.55-.08,11.21-.47a6.14,6.14,0,0,0,5.73-6.29c.08-3-1.55-5.17-5.06-5.66-3.9-.54-7.87-.48-11.88-.68Z"/><path class="cls-3" d="M199.23,42.42l-.3-.54c-.46-.68-.84-1.82-1.41-1.93a25.79,25.79,0,0,0-4.58-.09V62.8l-.15,1.88H178.07L178,63.61c0-1.54,0-3.07,0-4.6V7.71c0-.54,0-1.08,0-1.62l.09-4h0l.51-.07,25.73,0,4.11.47.77.07c.3.09.59.19.9.26,8.27,1.78,14.22,6,15.74,14.92l.05.56c.53,5.43-.52,10.4-4.25,14.6l-.23.22A21.28,21.28,0,0,1,213,38c2.08,3.42,4.06,6.71,6.07,10,2.83,4.61,5.69,9.21,8.54,13.81l.31.52.58,1.25c.06,1-.58.93-1.26.93-4.65,0-9.31,0-14,0a9.82,9.82,0,0,1-2.14-.52c-.21-.35-.43-.68-.62-1Q206.73,56,203,49.23h0l-.24-.38a.12.12,0,0,0-.06-.16Q201,45.56,199.23,42.42Zm-6.32-13.53a.85.85,0,0,0,0,.22.17.17,0,0,0,.12,0c2.5,0,5,0,7.52,0a7,7,0,0,0,1.25-.26,37.16,37.16,0,0,0,4.71-1.14c3.23-1.23,4.51-3.54,4.3-7.29-.14-2.65-1.89-4.65-5-5.48-4.26-1.13-8.59-.36-12.93-.61Z"/><path class="cls-3" d="M178,103a.11.11,0,0,0-.06.15l-4.61,5.25-.26.16-.52.4h0L167,111.63l4.48,7.1h0L178,129.5v0l.22.34a.21.21,0,0,0,.1.2l4.82,8.1-1.91.09H166.33a5.35,5.35,0,0,1-1.29-.85,13.85,13.85,0,0,1-1.16-1.89h0l-.5-.9-.37-.73-2.86-5.18-.3-.52-3-5.44-.4-.8-1.25-2.21h0c-.33-.68-.65-1.37-1-2-.75-1.38-1.21-3.27-2.37-4s-3.1-.29-4.7-.37l-.26,0a5.92,5.92,0,0,0-.36,1.45q0,11.7,0,23.4l-14.62,0a.21.21,0,0,0,0-.2v-1.36c0-.32,0-.63,0-.94V80.29c0-.32,0-.63,0-1,0-.82.08-1.64.13-2.47.45-1.24,1.49-1.06,2.49-1.06l24.36,0,1.25-.06,1.32.1,4.6.94.61.13,6.38,3,.33.24,1.61,1.37.18.23c.71.92,1.45,1.82,2.13,2.77,1.72,2.41,2.2,5.24,2.64,8.08h0c-.06,1.53-.11,3.06-.16,4.59l-.07.56-.55,2.45a.31.31,0,0,0-.05.25Zm-31.18-.69c3.1,0,6.12.09,9.12,0a15.32,15.32,0,0,0,4.22-.87,6.46,6.46,0,0,0,4.68-6.81c-.17-3.18-2-5.64-5.3-6.11-4.16-.59-8.41-.61-12.72-.88Z"/><path class="cls-3" d="M333.19,78.5a.17.17,0,0,0,.18.07l.9.5h0l4.32,3.58.22.25.36.46.47.62,1.95,3.78.13.56.14.27.08.53.16.38.07.43c.08.45.16.91.23,1.36s.07,1.08.11,1.61v.83l.09.59v.43l-.09,1.14c-.28,1.54-.56,3.07-.85,4.61l-.06.31-2.37,4.31a.16.16,0,0,0-.11.18l-3.21,3.08h0l-1.49,1h-.08l-.06.06c-1.31.56-2.62,1.12-3.92,1.7-.33.15-1.08.2-.36.84a.13.13,0,0,0,.09.15l.37.59h0l1.65,2.7h0l3.21,5.21h0l.63,1c0,.08.09.16.14.24l3.65,6h0c.17.29.35.58.53.87a.2.2,0,0,0,.1.21l3.7,6h0l.54.87a.23.23,0,0,0,.08.2l1.18,2.21H328.57l-.53-.07-3-5.39h0q-3-5.43-6-10.86h0l-.51-.93a.12.12,0,0,0-.06-.15l-1.63-3h0c-.36-.64-.71-1.28-1.06-1.92h0L314.76,114h0c-.19-.22-.37-.63-.56-.64-1.56,0-3.12,0-4.8,0v1.66c0,5.24,0,10.49,0,15.73,0,2.48-.05,5-.08,7.44h0l-1.36,0h-13a.75.75,0,0,0-.26,0c0-.45-.05-.9-.05-1.35q0-28.82,0-57.64c0-1.13,0-2.26,0-3.39h2.44l24.25-.06.71-.05,1.89.11,2.45.45.79.1L332.1,78a.17.17,0,0,0,.19.06Zm-23.72,9.08v14.76c2.92,0,5.72.1,8.51,0a18.21,18.21,0,0,0,4.51-.83c3.58-1.12,5.2-3.62,5-7.39-.17-3-2.19-5.3-5.7-5.75C317.73,87.82,313.62,87.82,309.47,87.58Z"/><path class="cls-3" d="M138.39,153.38l.48.33c2.26,1.95,4.3,4.13,5.23,7a57.75,57.75,0,0,1,1.32,6c0,.8,0,1.6,0,2.4-.15,1-.29,2-.43,3l-.13.78c-.55,1.36-1.1,2.72-1.66,4.08h0l-4.08,4.62-.27.18-.51.39h0l-1.66,1.06h0L132.41,185l6.22,9.94a.24.24,0,0,0,.1.22l2.36,3.82h0l3.81,6.25h0l.54.86,2.75,4.81a4,4,0,0,1-1.31.53c-5.33,0-10.66,0-16,0-.14-.23-.29-.45-.42-.69-4.16-7.59-8.3-15.18-12.48-22.75-.24-.44-.66-1-1-1.07-1.5-.12-3-.05-4.58-.05v22.93l-.26,1.84c-.35-1-1-.14-1.42-.15-3.39-.1-6.78-.06-10.17-.06H97.69V149.11l25.62,0h1.22l1.91.21.55,0,1.09.22.78.08A28.76,28.76,0,0,1,138.39,153.38Zm-26.15,22.45c2.91,0,5.67.11,8.41,0a19.46,19.46,0,0,0,4.9-.92c3.55-1.16,5-3.55,4.72-7.53a5.87,5.87,0,0,0-5.5-5.45c-4.06-.47-8.18-.37-12.28-.51-.07,0-.14.09-.25.17Z"/><path class="cls-3" d="M258.88,45.07a.17.17,0,0,0-.1-.18l-.47-.55h0c-2.13-2.68-4.26-5.37-6.4-8-.07-.08-.27,0-.41-.07a10.36,10.36,0,0,0-.23,1.55c0,8.4,0,16.81,0,25.21,0,1.1-.27,1.48-1.43,1.46-3.83-.07-7.68,0-11.52,0a10.24,10.24,0,0,0-1.43.2h-.28l0-35.79V2.12l.5-.11h13.57l.74.27a5.32,5.32,0,0,0-.19,1q0,11.55,0,23.09a4.55,4.55,0,0,0,.29,1.11l2.16-2.38.26-.29,7.1-8.11h0L262.6,15c.2-.24.41-.48.62-.71l3.52-4.14h0l.27-.29h0c.6-.6,1.21-1.18,1.78-1.81,1.86-2,3.7-4,5.54-6.09h14.92c1.12,0,2.24-.1,3.36-.12.13,0,.27.21.41.33l-.24.35h0l-.27.28h0L274,22.62l-.5.57L271,25.85h0L269.94,27h0l-.27.29h0c-.61.64-1.21,1.28-1.82,1.91a.16.16,0,0,0-.11.17L266,30.88l6.36,7.31a.16.16,0,0,0,.1.18l.38.39h0c.94,1.12,1.89,2.24,2.83,3.37l0,0,3.74,4.39h0l11.43,13.54h0l2.73,3.48c.06,1-.67.86-1.29.86-4.3,0-8.59,0-12.89,0-1.71,0-3.42-.33-5.13-.51l-.48-.32h0l-4.62-5.71h0l-1.68-2.11h0l-2-2.51-.17-.21-1.63-2a.17.17,0,0,0-.16-.18l-.18-.26-.27-.35L260.48,47h0Z"/><path class="cls-3" d="M150,44.9l.09-.55.24-1.09a.2.2,0,0,0,0-.23c.07-.56.15-1.11.22-1.66v-1.1c0-.54.06-1.08.06-1.62q0-17.62,0-35.25c0-.77,0-1.49,1.05-1.39h12.21l1.59.11-.8.3h.43A6.94,6.94,0,0,1,165.5,4q0,20.5,0,41L165,48.94h0l-1.08,3h0l-1.37,2.68-.24.35-.85,1.3h0c-.28.35-.56.71-.83,1.07h0l-2.69,2.74-.55.44a.15.15,0,0,0-.16.13l-.07.06-.25.21,0,0-1.09.78h0L153,63.33h0l-1.09.54h0l-4.61,1.64-.54.08-1.94.44-1.36.17-.34.08-.08,0-.08,0-9.21-.17-.84-.08-1.07-.22-.5-.07-.3-.13-.8-.14-.75-.08-.29-.19L125.9,63.9a.16.16,0,0,0-.18-.06l-5.79-3.75h0l-4-4.7a.18.18,0,0,0-.09-.19l-.21-.29a.25.25,0,0,0-.1-.24l-.46-.79v0l-.22-.33h0c-.08-.18-.16-.35-.25-.53l-.1-.25-.19-.33,0,0c-.12-.27-.23-.54-.34-.8s-.14-.38-.2-.57,0-.15-.09-.18v0l-.78-2.49-.13-.77c-.22-2.28-.6-4.56-.63-6.85-.09-6.27,0-12.54,0-18.81V3.4c0-.59-.23-1.35.77-1.39h13.57l.74.27A7.92,7.92,0,0,0,127,3.45q0,18.72,0,37.43a6.31,6.31,0,0,0,.27,1.26c.26.88.51,1.76.76,2.63l.08.39,2.1,3.89.62.71a8.9,8.9,0,0,0,5.39,2.69l.53,0c4.15.67,7.9,0,10.85-3.28h0l2.17-3.79h0Z"/><path class="cls-3" d="M270.45,210.9a.21.21,0,0,0-.21.07l-1.1.49h0l-6.5,1.67-.28,0-9.5,0-1.08-.09L247.45,212l-.1,0h-.12l-1.41-.52h0l-6.53-3.76,0,0-2.65-2.49v0l-.26-.32h0l-.86-1.06h0l-.57-.8h0l-.54-.82h0l-1.09-1.91-.34-.8-.19-.33c0-.17-.1-.34-.16-.5l-.14-.22v0l-.81-2.4-.11-.6-.13-.27h0c-.1-.94-.21-1.88-.31-2.83l0-43.24.53-.09h13.84l.32.32q0,10-.05,20.07c0,5.83-.06,11.66,0,17.49,0,3.74.82,7.27,3.76,9.95h0l3.3,2.09.27.05.81.25h0l.47.15.87.12h4.54l.32,0,2.44-.75h0l1.59-.83.55-.36,2.2-2.34h0l.33-.53.2-.31c.17-.36.35-.72.52-1.09h0c.09-.26.19-.52.29-.78l.26-.83.42-2.28.12-.72.12,0a6,6,0,0,0,.41-1.56q0-19,0-38l14.65-.05h0c0,.53.09,1.07.09,1.61q0,19.95,0,39.91l0,.53-.21,1.34-.11,1.13c-.07.26-.13.52-.2.78l-.07.56a27.7,27.7,0,0,1-5.16,10h0l-.27.27h0l-2.53,2.41a.17.17,0,0,0-.18.1Z"/><path class="cls-3" d="M281.65,101.32V110c0,.71-.09,1.42-.14,2.29H255.63v11.55c.15.51-.62,1.54.77,1.34,2.25,0,4.5.06,6.75,0l21.2,0a2.74,2.74,0,0,1,.29.83c0,3.81,0,7.63,0,11.44a2.64,2.64,0,0,1-.29.81c-.59,0-1.18,0-1.76,0l-41.64,0a.48.48,0,0,0-.06-.24c0-.5.05-1,.05-1.49V77.72c0-.63,0-1.26,0-1.89,13.42,0,26.84,0,40.26,0,1.19,0,1.54.31,1.52,1.51-.08,3.66,0,7.32,0,11L280,88.4c-.22,0-.44-.06-.67-.06q-11.35,0-22.72,0c-.31,0-.62,0-1,.07v9.11c0,.54,0,1.09,0,1.63-.29,1.29.55,1.09,1.31,1h.81c.54,0,1.08.07,1.62.07,7,0,14,0,21,0C281.25,100.17,281.72,100.37,281.65,101.32Z"/><path class="cls-3" d="M314.24,40.55v10.3l0,.82.07.47H343c0,3.88,0,7.75-.05,11.63,0,.23-.76.64-1.16.64q-21.09,0-42.17,0l-.07-.8c0-1.36,0-2.71,0-4.06V7.71c0-.54,0-1.08,0-1.62l.09-4h0l.51-.07c2.11,0,4.23.06,6.35.06h32.72c.54,0,1.08,0,1.62-.06h.54a.29.29,0,0,0,.24,0l.15,10.42c0,.75,0,1.5,0,2.36H314.24v10c0,.61,0,1.22,0,1.84a7.22,7.22,0,0,0,1.49.32q12.24,0,24.47,0l.09.53c0,2.9,0,5.79,0,8.68v1.63c-.06.34-.11.67-.18,1.11H314.24Z"/><path class="cls-3" d="M32,76.35l.26,0,4.59,1.44.5.19c1.12.66,2.28,1.26,3.35,2a16.49,16.49,0,0,1,6.47,9.64l.15,1.08c0,2.89-.05,5.79-.07,8.68l-.06.53a18.42,18.42,0,0,1-5.95,9.52h0l-3.83,2.36-.54.21-.23.14-.36.11-4.61,1.48-3.46.6-1.37,0c-3.42,0-6.83,0-10.25,0a6.75,6.75,0,0,0-1.36.29l.06,2.14V138l-.11.25a.75.75,0,0,0-.26,0H.83c-1.18,0-.76-.91-.76-1.47q0-29.34,0-58.68c0-.77,0-1.53.06-2.3H26.9l.49-.09,1.63.12Zm-16.72,26.1a5.11,5.11,0,0,0,.74.11c2.3,0,4.62.08,6.91-.13a20,20,0,0,0,5.38-1.15,6.33,6.33,0,0,0,4.11-6.66,6.25,6.25,0,0,0-5-6.14c-4-1.09-8-.59-12.15-.69Z"/><path class="cls-3" d="M314.19,188.18h-.81l-1.57,0a7.87,7.87,0,0,0-.3,1.49c0,6.78,0,13.56,0,20.33,0,1.08-.23,1.51-1.41,1.49-3.79-.07-7.59,0-11.39,0-1.6,0-1.88-.29-1.88-1.91V149.12l.26-.1,26,.06,3.29.41,1.08.13,1.91.44.54.08c5.73,1.62,10.39,4.61,13,10.21l0,.07.06.05,1.08,4.1.27.91a2.94,2.94,0,0,0-.18.86,22.82,22.82,0,0,1-1.69,10.95.09.09,0,0,0-.05.14l-1.4,2.26-.22.3-4.05,3.8h0l-.34.24,0,0-.54.32h0l-2,1.08-.7.32-6.51,1.89h0l-4.39.53-7.27.06Zm-2.26-12c1.71,0,3.44.08,5.13-.1a38.81,38.81,0,0,0,7.56-1.19c3.16-1,4.56-3.57,4.38-6.84s-1.87-5.57-5.19-6c-3.9-.55-7.9-.42-11.85-.58-.07,0-.14.1-.21.16a2.32,2.32,0,0,0-.26.72c0,4.34,0,8.67,0,13C311.5,175.59,311.78,175.87,311.93,176.16Z"/><path class="cls-2" d="M216,138.18l-.27.08H201.22V104.53q0-7.94,0-15.86a6.33,6.33,0,0,0-1.44-.36c-5,0-9.94,0-14.91,0-.94,0-1.26-.27-1.25-1.23.05-3.25,0-6.5,0-9.76,0-1,.37-1.52,1.52-1.52q23.73,0,47.45,0c1.05,0,1.28.35,1.27,1.33q-.09,5,0,9.9c0,1-.33,1.29-1.32,1.29-4.88,0-9.76,0-14.64,0a7.7,7.7,0,0,0-1.41.24l-.25.31a8.68,8.68,0,0,0-.3,1.65Q216,114.35,216,138.18Z"/><path class="cls-5" d="M423.29.38h-38.9c-1.72,0-3.43,0-5.15,0-.76,0-1.09.27-1,1,0,.13,0,.27,0,.4q0,44.87,0,89.73H378q0-44.15,0-88.29c0-.59,0-1.18,0-1.76V.93a.3.3,0,0,0,0-.26l0-.55c.58,0,1.16-.12,1.74-.12l43.56.16h0A.62.62,0,0,0,423.29.38Z"/><path class="cls-6" d="M234.18,79.61v8.94H216.54a7.7,7.7,0,0,1,1.41-.24c4.88,0,9.76,0,14.64,0,1,0,1.34-.26,1.32-1.29q-.09-4.95,0-9.9c0-1-.22-1.33-1.27-1.33q-23.73,0-47.45,0c-1.15,0-1.52.47-1.52,1.52,0,3.26,0,6.51,0,9.76,0,1,.31,1.24,1.25,1.23,5,0,9.94,0,14.91,0a6.33,6.33,0,0,1,1.44.36l-11.58-.1c-1.75,0-3.5,0-5.26,0-.34,0-.67-.34-1-.53V75.82a7,7,0,0,1,1.25-.27c2.26,0,4.52,0,6.78,0l42.44,0,.29.31v3.79Z"/><path class="cls-5" d="M311.81,188.2v23.49H296.66c0-.29-.09-.55-.09-.81V149.49c0-.13,0-.27,0-.4a.5.5,0,0,1,.24,0v60.45c0,1.62.28,1.91,1.88,1.91,3.8,0,7.6,0,11.39,0,1.18,0,1.41-.41,1.41-1.49,0-6.77,0-13.55,0-20.33A7.87,7.87,0,0,1,311.81,188.2Z"/><path class="cls-5" d="M343.2,51.73v13h-1.45q-20.37,0-40.75,0a6.72,6.72,0,0,1-1.43-.33q21.09,0,42.17,0c.4,0,1.16-.41,1.16-.64.07-3.88.05-7.75.05-11.63H314.27l-.07-.47h28.48Z"/><path class="cls-6" d="M112.1,211.68H97.5c0-.33-.09-.67-.09-1V149.76c0-.23,0-.45,0-.68a.52.52,0,0,1,.25,0v62.36h2.82c3.39,0,6.78,0,10.17.06C111.11,211.54,111.75,210.71,112.1,211.68Z"/><path class="cls-6" d="M241,75.57h42V88.3l-.29,0c0-3.66,0-7.32,0-11,0-1.2-.33-1.51-1.52-1.51-13.42,0-26.84,0-40.26,0A.47.47,0,0,1,241,75.57Z"/><path class="cls-7" d="M216.29,88.86c0,1,.06,2,.06,3V137c0,.4,0,.8-.08,1.2l-.29,0q0-23.84,0-47.67A8.68,8.68,0,0,1,216.29,88.86Z"/><path class="cls-7" d="M231.15,192.35a23.94,23.94,0,0,1-.33-2.92q0-19.85,0-39.7a5,5,0,0,1,.08-.66l.29,0Z"/><path class="cls-8" d="M269.27,188.64l-.12,0q0-19.26,0-38.51a5.21,5.21,0,0,1,.26-1.14l0,.06c0,.54-.09,1.08-.09,1.61v30.64C269.34,183.76,269.3,186.2,269.27,188.64Z"/><path class="cls-6" d="M.12,75.81a7.14,7.14,0,0,1,1.35-.26q12,0,24.05,0l1.23.06.15.21Z"/><path class="cls-6" d="M294.67,75.83v-.28h0l2.16,0h.56l23.32,0,.54,0a1.13,1.13,0,0,1,.12.21l-24.25.06Z"/><path class="cls-6" d="M251.55,27.5a4.55,4.55,0,0,1-.29-1.11q0-11.54,0-23.09a5.32,5.32,0,0,1,.19-1c0,.45.07.89.07,1.34,0,6.11,0,12.22,0,18.33a9.37,9.37,0,0,0,.23,1.39l-.18.19Z"/><path class="cls-8" d="M252.88,198.94l-3.3-2.09,1.7.71a2.73,2.73,0,0,1,.77.36A9,9,0,0,1,252.88,198.94Z"/><path class="cls-8" d="M267,195.2l-2.2,2.34C265.29,196.53,265.69,195.44,267,195.2Z"/><path class="cls-8" d="M259.89,199.52h0Z"/><path class="cls-8" d="M262.65,198.73l-2.44.75A2.58,2.58,0,0,1,262.65,198.73Z"/><path class="cls-8" d="M269,189.38l-.42,2.28Z"/><path class="cls-8" d="M264.25,197.9l-1.59.83Z"/><path class="cls-8" d="M268.05,193.28c-.17.37-.35.73-.52,1.09C267.7,194,267.88,193.65,268.05,193.28Z"/><path class="cls-8" d="M254,199.24l-.81-.25Z"/><path class="cls-8" d="M268.35,192.49c-.1.26-.2.52-.29.78C268.15,193,268.25,192.75,268.35,192.49Z"/><path class="cls-8" d="M267.33,194.68l-.33.53Z"/><path class="cls-8" d="M254.48,199.4l-.47-.15Z"/><path class="cls-7" d="M82.89,64.45c-.93.09-1.86.26-2.79.26-8.4,0-16.8,0-25.2,0-.26,0-.53,0-.93,0V63.16q0-29.8,0-59.61a6.28,6.28,0,0,1,.33-1.43l0,49.6c0,3.7.06,7.41,0,11.11,0,1.34.41,1.63,1.68,1.62C64.92,64.4,73.9,64.44,82.89,64.45Z"/><path class="cls-7" d="M228.49,63.5l.78,1.11a8.57,8.57,0,0,1-1,.11c-5.26,0-10.52,0-15.77,0-.69,0-1.26,0-1.41-.86a9.82,9.82,0,0,0,2.14.52c4.65,0,9.31,0,14,0C227.91,64.43,228.55,64.46,228.49,63.5Z"/><path class="cls-6" d="M192.91,28.89h8.93a7,7,0,0,1-1.25.26c-2.51,0-5,0-7.52,0a.17.17,0,0,1-.12,0A.85.85,0,0,1,192.91,28.89Z"/><path class="cls-6" d="M132,76.87l-.07-1.28h26.15a3.21,3.21,0,0,1,.77.19l-24.36,0C133.48,75.81,132.44,75.63,132,76.87Z"/><path class="cls-6" d="M146.9,113.32c0,1.71-.09,3.42-.1,5.13,0,6.13,0,12.26,0,18.39a6.82,6.82,0,0,1-.27,1.33q0-11.7,0-23.4A5.92,5.92,0,0,1,146.9,113.32Z"/><path class="cls-6" d="M148.17,210.91l.49.8c-5.66,0-11.31,0-17,0a2.89,2.89,0,0,1-.82-.26c5.33,0,10.66,0,16,0A4,4,0,0,0,148.17,210.91Z"/><path class="cls-6" d="M251.49,36.23V64.64h-14.6a10.24,10.24,0,0,1,1.43-.2c3.84,0,7.69-.06,11.52,0,1.16,0,1.44-.36,1.43-1.46,0-8.4,0-16.81,0-25.21A10.36,10.36,0,0,1,251.49,36.23Z"/><path class="cls-7" d="M293.59,63.56l1,.91a6.25,6.25,0,0,1-1.26.25c-5.81,0-11.62,0-17.43,0-.54,0-1.08-.52-1.62-.8,1.71.18,3.42.48,5.13.51,4.3.07,8.59,0,12.89,0C292.92,64.42,293.65,64.57,293.59,63.56Z"/><path class="cls-7" d="M165.76,44.86a1.64,1.64,0,0,0-.22.14q0-20.51,0-41a6.94,6.94,0,0,0-.39-1.57h-.43l.8-.3a4.22,4.22,0,0,1,.33,1.16Q165.8,24.07,165.76,44.86Z"/><path class="cls-6" d="M127.19,2.28a7.38,7.38,0,0,1,.07.81q0,19.52,0,39.05a6.31,6.31,0,0,1-.27-1.26q0-18.72,0-37.43A7.92,7.92,0,0,1,127.19,2.28Z"/><path class="cls-7" d="M269.27,188.64c0-2.44.07-4.88.07-7.32V150.68c0-.53.06-1.07.09-1.61l.27,0q0,19,0,38A6,6,0,0,1,269.27,188.64Z"/><path class="cls-7" d="M314.23,26.65q12.25,0,24.52,0a7.42,7.42,0,0,1,1.44.31q-12.24,0-24.47,0A7.22,7.22,0,0,1,314.23,26.65Z"/><path class="cls-6" d="M26.86,114.35c-2,.09-4,.2-6.06.26-1.85,0-3.7,0-5.55,0a6.75,6.75,0,0,1,1.36-.29C20,114.33,23.44,114.35,26.86,114.35Z"/><path class="cls-7" d="M311.75,161.57q0,6.5.05,13c0,.54.08,1.07.13,1.61-.15-.29-.43-.57-.43-.86,0-4.34,0-8.67,0-13A2.32,2.32,0,0,1,311.75,161.57Z"/></g></g></g></svg>