<svg xmlns="http://www.w3.org/2000/svg" viewBox="0 0 2078.28 2078.29"><defs><style>.cls-1{fill:#295ca7;}.cls-1,.cls-2{fill-rule:evenodd;}.cls-2{fill:#fff;}</style></defs><g id="Capa_2" data-name="Capa 2"><g id="Capa_1-2" data-name="Capa 1"><path class="cls-1" d="M1039.57,0c572.16,0,1038.71,466.57,1038.71,1039.57,0,571.29-466.57,1038.72-1038.71,1038.72S0,1610.86,0,1039.57C0,466.56,467.42,0,1039.57,0Z"/><path class="cls-2" d="M1039.57,132c498.92,0,906.76,407.82,906.76,907.61,0,498.93-407.83,905.9-906.76,905.9s-906.75-407-906.75-905.91c0-499.78,407.81-907.6,906.75-907.6ZM432.5,551.71l325.25,843.75,119.19-308.22h312.47l119.17,308.22,328.66-854a783.52,783.52,0,0,0-206-175.38L1203,994.44H881.18l-229-630.9c-84.29,48.54-158.36,112.4-219.67,188.17Zm1335.88,212L1398,1730.06c248.63-130.27,419.74-390.79,419.74-690.48C1817.74,942.51,1800.72,849.7,1768.38,763.71ZM1236.23,1793.06l-2.53-19.59-201-521.06L831.82,1773.47l-.85,16.19c66.41,18.71,136.22,28.09,208.6,28.09A787.66,787.66,0,0,0,1236.23,1793.06Zm-570.44-71.52-361-940.8c-28.95,80.88-44.28,167.73-44.28,258.83,0,292.88,163.47,550,405.27,682Zm373.78-1461c68.1,0,135.36,8.52,199.22,25.54L1042.12,830.12,844.59,285.22A774.47,774.47,0,0,1,1039.57,260.52Z"/></g></g></svg>