<svg xmlns="http://www.w3.org/2000/svg" viewBox="0 0 61.74 61.74"><defs><style>.cls-1{fill:#005399;}</style></defs><g id="Capa_2" data-name="Capa 2"><g id="CONTÃCTANOS"><g id="CONTACTO"><g id="REDES_SOCIALES" data-name="REDES SOCIALES"><path id="ICON_FACEBOOK" data-name="ICON FACEBOOK" class="cls-1" d="M46.11,0H15.63A15.63,15.63,0,0,0,0,15.63V46.11A15.63,15.63,0,0,0,15.63,61.74H26.1V39.68H18.36V30.87H26.1V24.15c0-7.64,4.56-11.86,11.52-11.86a47.35,47.35,0,0,1,6.83.59v7.51H40.6c-3.79,0-5,2.35-5,4.76v5.72h8.46l-1.35,8.81H35.63v22H46.11A15.63,15.63,0,0,0,61.74,46.11V15.63A15.63,15.63,0,0,0,46.11,0Z"/></g></g></g></g></svg>