<svg xmlns="http://www.w3.org/2000/svg" viewBox="0 0 64.56 64.56"><defs><style>.cls-1{fill:#005399;}</style></defs><g id="Capa_2" data-name="Capa 2"><g id="CONTÃCTANOS"><g id="CONTACTO"><g id="REDES_SOCIALES" data-name="REDES SOCIALES"><g id="ICONO_INSTAGRAM" data-name="ICONO INSTAGRAM"><path class="cls-1" d="M46.18,64.56H18.37A18.39,18.39,0,0,1,0,46.18V18.37A18.39,18.39,0,0,1,18.37,0H46.18A18.4,18.4,0,0,1,64.56,18.37V46.18A18.4,18.4,0,0,1,46.18,64.56Zm-27.81-59A12.85,12.85,0,0,0,5.53,18.37V46.18A12.85,12.85,0,0,0,18.37,59H46.18A12.85,12.85,0,0,0,59,46.18V18.37A12.85,12.85,0,0,0,46.18,5.53Z"/><path class="cls-1" d="M32.28,48.81A16.53,16.53,0,1,1,48.81,32.28,16.55,16.55,0,0,1,32.28,48.81Zm0-27.53a11,11,0,1,0,11,11A11,11,0,0,0,32.28,21.28Z"/><path class="cls-1" d="M53.49,14.8a4,4,0,1,1-4-4A4,4,0,0,1,53.49,14.8Z"/></g></g></g></g></g></svg>